<?xml version="1.0" standalone="no"?>
<!DOCTYPE svg PUBLIC "-//W3C//DTD SVG 20010904//EN"
 "http://www.w3.org/TR/2001/REC-SVG-20010904/DTD/svg10.dtd">
<svg version="1.0" xmlns="http://www.w3.org/2000/svg"
 width="378.000000pt" height="378.000000pt" viewBox="0 0 378.000000 378.000000"
 preserveAspectRatio="xMidYMid meet">
<metadata>
Created by potrace 1.14, written by Peter Selinger 2001-2017
</metadata>
<g transform="translate(0.000000,378.000000) scale(0.100000,-0.100000)"
fill="#000000" stroke="none">
<path d="M869 3143 c-112 -29 -195 -106 -234 -218 -16 -46 -17 -126 -17 -1035
-1 -542 2 -1002 6 -1023 21 -128 128 -239 256 -266 41 -9 310 -11 1055 -9
l1000 3 55 29 c75 39 144 113 171 184 l22 57 1 990 c1 1019 1 1035 -39 1119
-34 72 -133 151 -216 173 -13 3 -470 7 -1015 8 -804 1 -1002 -1 -1045 -12z
m1974 -150 c92 -43 178 -146 195 -236 4 -18 7 -421 7 -897 l0 -865 -23 -54
c-27 -60 -33 -70 -81 -118 -37 -38 -108 -77 -160 -88 -42 -9 -1722 -8 -1765 1
-94 20 -185 95 -232 190 l-29 59 -1 874 c-1 762 0 880 14 920 35 105 115 188
215 223 49 16 109 17 932 15 l880 -2 48 -22z"/>
<path d="M1592 2707 c-6 -7 -9 -22 -6 -33 4 -15 -4 -27 -30 -45 -36 -24 -48
-45 -50 -85 -1 -12 -7 -28 -14 -37 -10 -11 -9 -17 3 -27 18 -15 20 -166 2
-217 -8 -23 -7 -35 1 -45 16 -20 14 -187 -3 -214 -12 -19 -11 -24 13 -47 15
-14 65 -44 112 -67 111 -56 185 -107 238 -164 24 -26 45 -46 47 -44 20 24 25
66 25 196 0 141 1 150 23 169 44 40 61 44 95 20 42 -30 49 -49 47 -139 0 -43
0 -78 2 -78 10 0 182 91 187 98 3 5 6 52 7 106 1 53 5 96 10 96 14 0 11 26 -4
38 -8 7 -13 28 -12 49 4 84 -40 141 -178 235 -50 34 -87 65 -84 72 3 6 -1 20
-9 31 -12 16 -12 21 3 37 15 17 15 18 -1 18 -9 0 -22 -11 -28 -25 -9 -20 -8
-28 5 -43 9 -9 13 -22 9 -28 -4 -6 -43 -34 -87 -63 -44 -29 -93 -65 -109 -80
-38 -35 -66 -96 -66 -147 0 -25 -6 -47 -15 -54 -8 -7 -15 -19 -15 -26 0 -8 -4
-14 -10 -14 -5 0 -10 16 -10 35 0 19 5 35 10 35 6 0 10 9 10 19 0 11 -4 23
-10 26 -15 9 -13 198 2 213 10 10 10 17 0 32 -6 11 -12 31 -12 46 0 18 -15 40
-46 71 -36 34 -45 50 -41 69 5 28 4 29 -11 11z m36 -284 c7 -15 8 -50 3 -94 0
-5 -16 -9 -33 -7 -32 3 -33 5 -35 48 0 25 4 51 9 58 15 18 46 15 56 -5z m-1
-265 c5 -7 9 -33 9 -58 -1 -42 -3 -45 -30 -48 -33 -4 -46 10 -46 51 0 55 41
89 67 55z"/>
<path d="M2025 2589 c-4 -6 -5 -13 -2 -16 7 -7 27 6 27 18 0 12 -17 12 -25 -2z"/>
<path d="M1201 1996 c-6 -7 -14 -27 -17 -43 -7 -35 -52 -6 455 -297 239 -138
276 -157 296 -148 13 6 94 52 181 102 88 51 241 139 341 197 100 57 186 110
191 116 7 8 5 24 -5 48 l-14 37 -58 -18 c-276 -86 -520 -214 -614 -321 l-44
-50 -16 25 c-71 107 -288 228 -604 336 -65 23 -84 26 -92 16z"/>
<path d="M1086 1875 c-25 -38 -16 -66 29 -91 11 -6 110 -63 220 -126 110 -64
216 -125 235 -136 19 -11 98 -56 175 -101 77 -44 146 -81 155 -81 8 0 78 37
155 81 77 45 156 91 175 102 330 187 483 278 492 291 12 18 9 39 -10 63 l-17
22 -70 -40 c-38 -23 -88 -51 -110 -64 -22 -12 -107 -62 -190 -110 -82 -48
-166 -97 -185 -108 -19 -10 -81 -46 -138 -79 l-102 -59 -263 152 c-144 84
-275 160 -292 169 -16 10 -70 41 -120 70 -49 28 -97 56 -106 61 -13 6 -21 2
-33 -16z"/>
<path d="M1103 1633 c-23 -8 -14 -45 33 -137 124 -242 223 -333 419 -387 44
-12 113 -35 154 -51 85 -34 102 -30 147 30 20 26 25 41 21 67 -12 75 -180 222
-337 297 -157 74 -169 28 -29 -106 40 -38 65 -67 56 -63 -50 19 -215 143 -300
226 -103 100 -144 132 -164 124z"/>
<path d="M2612 1583 c-37 -31 -92 -80 -122 -109 -90 -85 -136 -120 -245 -183
-33 -20 -26 -10 41 55 84 82 110 117 99 135 -24 38 -247 -81 -368 -195 -55
-52 -106 -131 -100 -155 6 -25 80 -101 97 -101 7 0 42 13 77 29 35 15 88 34
118 41 183 43 281 112 385 272 62 95 116 206 116 237 0 39 -30 31 -98 -26z"/>
</g>
</svg>
